<?xml version="1.0" encoding="UTF-8" standalone="no"?>
<!-- Created with Inkscape (http://www.inkscape.org/) -->

<svg
   xmlns:dc="http://purl.org/dc/elements/1.1/"
   xmlns:cc="http://creativecommons.org/ns#"
   xmlns:rdf="http://www.w3.org/1999/02/22-rdf-syntax-ns#"
   xmlns:svg="http://www.w3.org/2000/svg"
   xmlns="http://www.w3.org/2000/svg"
   xmlns:xlink="http://www.w3.org/1999/xlink"
   xmlns:sodipodi="http://sodipodi.sourceforge.net/DTD/sodipodi-0.dtd"
   xmlns:inkscape="http://www.inkscape.org/namespaces/inkscape"
   width="400"
   height="400"
   viewBox="0 0 400 400.00001"
   id="svg5972"
   version="1.1"
   inkscape:version="0.91 r13725"
   sodipodi:docname="chip-red.svg">
  <defs
     id="defs5974">
    <linearGradient
       inkscape:collect="always"
       id="linearGradient8381">
      <stop
         style="stop-color:#000000;stop-opacity:1;"
         offset="0"
         id="stop8383" />
      <stop
         style="stop-color:#000000;stop-opacity:0;"
         offset="1"
         id="stop8385" />
    </linearGradient>
    <linearGradient
       id="linearGradient7847">
      <stop
         style="stop-color:#000050;stop-opacity:0.43577981;"
         offset="0"
         id="stop7849" />
    </linearGradient>
    <linearGradient
       inkscape:collect="always"
       id="linearGradient8588">
      <stop
         style="stop-color:#ffffff;stop-opacity:1;"
         offset="0"
         id="stop8590" />
      <stop
         style="stop-color:#ffffff;stop-opacity:0;"
         offset="1"
         id="stop8592" />
    </linearGradient>
    <linearGradient
       inkscape:collect="always"
       xlink:href="#linearGradient7847"
       id="linearGradient5625"
       gradientUnits="userSpaceOnUse"
       gradientTransform="matrix(0.96618355,0,0,0.96618355,-153.50971,598.30117)"
       x1="163.38257"
       y1="262.95316"
       x2="568.38257"
       y2="262.95316" />
    <linearGradient
       inkscape:collect="always"
       xlink:href="#linearGradient7847"
       id="linearGradient5627"
       gradientUnits="userSpaceOnUse"
       gradientTransform="matrix(0.96618355,0,0,0.96618355,-153.50971,598.30121)"
       x1="163.38257"
       y1="262.95316"
       x2="568.38257"
       y2="262.95316" />
    <linearGradient
       inkscape:collect="always"
       xlink:href="#linearGradient7847"
       id="linearGradient5631"
       gradientUnits="userSpaceOnUse"
       gradientTransform="matrix(0.96618355,0,0,0.96618355,-153.50971,598.30121)"
       x1="163.38257"
       y1="262.95316"
       x2="568.38257"
       y2="262.95316" />
    <linearGradient
       inkscape:collect="always"
       xlink:href="#linearGradient7847"
       id="linearGradient6167"
       gradientUnits="userSpaceOnUse"
       gradientTransform="matrix(0.96618355,0,0,0.96618355,-152.536,597.33605)"
       x1="163.38257"
       y1="262.95316"
       x2="568.38257"
       y2="262.95316" />
    <linearGradient
       inkscape:collect="always"
       xlink:href="#linearGradient7847"
       id="linearGradient6169"
       gradientUnits="userSpaceOnUse"
       gradientTransform="matrix(0.96618355,0,0,0.96618355,-152.53659,597.33529)"
       x1="163.38257"
       y1="262.95316"
       x2="568.38257"
       y2="262.95316" />
    <linearGradient
       inkscape:collect="always"
       xlink:href="#linearGradient7847"
       id="linearGradient6172"
       gradientUnits="userSpaceOnUse"
       gradientTransform="matrix(0.96618355,0,0,0.96618355,-152.53659,597.33528)"
       x1="163.38257"
       y1="262.95316"
       x2="568.38257"
       y2="262.95316" />
    <linearGradient
       y2="262.95316"
       x2="568.38257"
       y1="262.95316"
       x1="163.38257"
       gradientTransform="matrix(0.96618355,0,0,0.96618355,325.92175,254.34152)"
       gradientUnits="userSpaceOnUse"
       id="linearGradient4646"
       xlink:href="#linearGradient7847"
       inkscape:collect="always" />
    <linearGradient
       y2="262.95316"
       x2="568.38257"
       y1="262.95316"
       x1="163.38257"
       gradientTransform="matrix(0.96618355,0,0,0.96618355,325.92175,254.34156)"
       gradientUnits="userSpaceOnUse"
       id="linearGradient4648"
       xlink:href="#linearGradient7847"
       inkscape:collect="always" />
    <linearGradient
       y2="262.95316"
       x2="568.38257"
       y1="262.95316"
       x1="163.38257"
       gradientTransform="matrix(0.96618355,0,0,0.96618355,325.92175,254.34156)"
       gradientUnits="userSpaceOnUse"
       id="linearGradient4652"
       xlink:href="#linearGradient7847"
       inkscape:collect="always" />
    <linearGradient
       inkscape:collect="always"
       xlink:href="#linearGradient8588"
       id="linearGradient5686"
       gradientUnits="userSpaceOnUse"
       gradientTransform="matrix(0.76083617,0,0,0.76083617,700.83195,1138.4495)"
       x1="99.171875"
       y1="231.10449"
       x2="416.3125"
       y2="231.10449" />
    <radialGradient
       gradientUnits="userSpaceOnUse"
       gradientTransform="matrix(0.96618355,0,0,0.96667002,648.97059,1090.9811)"
       r="139.88281"
       fy="230.97656"
       fx="257.78125"
       cy="230.97656"
       cx="257.78125"
       id="radialGradient8616-6-0-2"
       xlink:href="#linearGradient8381"
       inkscape:collect="always" />
    <radialGradient
       gradientTransform="matrix(0.82269094,-0.00478309,0.00469958,0.80832801,684.86925,1128.8042)"
       gradientUnits="userSpaceOnUse"
       r="202"
       fy="235.85107"
       fx="255.37003"
       cy="235.85107"
       cx="255.37003"
       id="radialGradient8389-2-3-1-3"
       xlink:href="#linearGradient8381"
       inkscape:collect="always" />
    <linearGradient
       inkscape:collect="always"
       xlink:href="#linearGradient7847"
       id="linearGradient4715"
       gradientUnits="userSpaceOnUse"
       gradientTransform="matrix(0.96618355,0,0,0.96618355,544.49033,1060.3012)"
       x1="163.38257"
       y1="262.95316"
       x2="568.38257"
       y2="262.95316" />
    <radialGradient
       gradientUnits="userSpaceOnUse"
       gradientTransform="matrix(0.96618355,0,0,0.9661389,648.97059,1091.1038)"
       r="124.9668"
       fy="231.07617"
       fx="257.84961"
       cy="231.07617"
       cx="257.84961"
       id="radialGradient8594-6-0-5"
       xlink:href="#linearGradient8588"
       inkscape:collect="always" />
    <linearGradient
       inkscape:collect="always"
       xlink:href="#linearGradient8588"
       id="linearGradient4713"
       gradientUnits="userSpaceOnUse"
       gradientTransform="matrix(0.96618355,0,0,0.96618355,648.97059,1091.0934)"
       x1="99.171875"
       y1="231.10449"
       x2="416.3125"
       y2="231.10449" />
    <linearGradient
       inkscape:collect="always"
       xlink:href="#linearGradient7847"
       id="linearGradient4711"
       gradientUnits="userSpaceOnUse"
       gradientTransform="matrix(0.96618355,0,0,0.96618355,544.49033,1060.3012)"
       x1="163.38257"
       y1="262.95316"
       x2="568.38257"
       y2="262.95316" />
    <linearGradient
       inkscape:collect="always"
       xlink:href="#linearGradient7847"
       id="linearGradient4709"
       gradientUnits="userSpaceOnUse"
       gradientTransform="matrix(0.96618355,0,0,0.96618355,544.49033,1060.3011)"
       x1="163.38257"
       y1="262.95316"
       x2="568.38257"
       y2="262.95316" />
    <linearGradient
       inkscape:collect="always"
       xlink:href="#linearGradient7847"
       id="linearGradient4707"
       gradientUnits="userSpaceOnUse"
       gradientTransform="matrix(0.99009901,0,0,0.99009901,535.74009,1054.0125)"
       x1="163.38257"
       y1="262.95316"
       x2="568.38257"
       y2="262.95316" />
  </defs>
  <sodipodi:namedview
     id="base"
     pagecolor="#ffffff"
     bordercolor="#666666"
     borderopacity="1.0"
     inkscape:pageopacity="0.0"
     inkscape:pageshadow="2"
     inkscape:zoom="0.5"
     inkscape:cx="228.8524"
     inkscape:cy="286.71659"
     inkscape:document-units="px"
     inkscape:current-layer="layer1"
     showgrid="false"
     units="px"
     inkscape:window-width="1855"
     inkscape:window-height="1056"
     inkscape:window-x="65"
     inkscape:window-y="24"
     inkscape:window-maximized="1" />
  <metadata
     id="metadata5977">
    <rdf:RDF>
      <cc:Work
         rdf:about="">
        <dc:format>image/svg+xml</dc:format>
        <dc:type
           rdf:resource="http://purl.org/dc/dcmitype/StillImage" />
        <dc:title></dc:title>
      </cc:Work>
    </rdf:RDF>
  </metadata>
  <g
     inkscape:label="Capa 1"
     inkscape:groupmode="layer"
     id="layer1"
     transform="translate(0,-652.36216)">
    <g
       transform="matrix(0.65990244,0,0,0.65990244,500.65672,71.83471)"
       id="g4299-3-0" />
    <g
       id="g5214"
       transform="translate(-698,-462.00003)">
      <circle
         style="color:#000000;clip-rule:nonzero;display:inline;overflow:visible;visibility:visible;opacity:1;isolation:auto;mix-blend-mode:normal;color-interpolation:sRGB;color-interpolation-filters:linearRGB;solid-color:#000000;solid-opacity:1;fill:#000000;fill-opacity:0.50458715;fill-rule:nonzero;stroke:url(#linearGradient4707);stroke-width:0;stroke-linecap:butt;stroke-linejoin:miter;stroke-miterlimit:4;stroke-dasharray:none;stroke-dashoffset:0;stroke-opacity:1;color-rendering:auto;image-rendering:auto;shape-rendering:auto;text-rendering:auto;enable-background:accumulate"
         id="path6327-5-7-1-91-1"
         cx="898"
         cy="1314.3622"
         r="200" />
      <circle
         style="color:#000000;clip-rule:nonzero;display:inline;overflow:visible;visibility:visible;opacity:1;isolation:auto;mix-blend-mode:normal;color-interpolation:sRGB;color-interpolation-filters:linearRGB;solid-color:#000000;solid-opacity:1;fill:#f6f4f4;fill-opacity:1;fill-rule:nonzero;stroke:url(#linearGradient4709);stroke-width:0;stroke-linecap:butt;stroke-linejoin:miter;stroke-miterlimit:4;stroke-dasharray:none;stroke-dashoffset:0;stroke-opacity:1;color-rendering:auto;image-rendering:auto;shape-rendering:auto;text-rendering:auto;enable-background:accumulate"
         id="path6327-9-9-0-2"
         cx="898"
         cy="1314.3622"
         r="195.16908" />
      <path
         inkscape:connector-curvature="0"
         style="fill:#ffffff;fill-opacity:0;stroke-width:0.99900001;stroke-miterlimit:4;stroke-dasharray:none"
         d="m 729.09561,1411.7995 36.35454,-20.9899 a 153.20774,153.20774 0 0 1 -20.65783,-76.4475 153.20774,153.20774 0 0 1 0.004,-0.079 l -41.96294,0 a 195.16908,195.16908 0 0 0 -0.002,0.079 195.16908,195.16908 0 0 0 26.26434,97.4374 z"
         id="path5516-2-6-7" />
      <path
         inkscape:connector-curvature="0"
         style="fill:#ffffff;fill-opacity:0;stroke-width:0.99900001;stroke-miterlimit:4;stroke-dasharray:none"
         d="m 729.22204,1216.9097 36.31492,20.9655 a 153.20774,153.20774 0 0 1 55.9707,-56.0368 l -20.98807,-36.3526 a 195.16908,195.16908 0 0 0 -71.29755,71.4239 z"
         id="path5435-0-9-09" />
      <path
         inkscape:connector-curvature="0"
         style="fill:#ffffff;fill-opacity:0;stroke-width:0.99900001;stroke-miterlimit:4;stroke-dasharray:none"
         d="m 1066.8327,1216.8075 -36.3508,20.9862 a 153.20774,153.20774 0 0 1 15.2174,36.9263 153.20774,153.20774 0 0 1 5.5065,39.5626 l 41.9591,0 a 195.16908,195.16908 0 0 0 -6.9765,-50.4114 195.16908,195.16908 0 0 0 -19.3557,-47.0637 z"
         id="path5810-2-3-3" />
      <path
         inkscape:connector-curvature="0"
         style="fill:#ffffff;fill-opacity:0;stroke-width:0.99900001;stroke-miterlimit:4;stroke-dasharray:none"
         d="m 800.56677,1483.15 a 195.16908,195.16908 0 0 0 97.36376,26.3794 l 0,-41.9629 a 153.20774,153.20774 0 0 1 -76.39833,-20.7296 l -20.96543,36.3131 z"
         id="path5591-3-3-6" />
      <path
         inkscape:connector-curvature="0"
         style="fill:#ffffff;fill-opacity:0;stroke-width:0.99900001;stroke-miterlimit:4;stroke-dasharray:none"
         d="m 1030.4713,1390.836 a 153.20774,153.20774 0 0 1 -55.94808,56.033 l 20.98807,36.3526 a 195.16908,195.16908 0 0 0 71.27491,-71.4201 l -36.3149,-20.9655 z"
         id="path5468-7-8-0" />
      <path
         inkscape:connector-curvature="0"
         style="fill:#ffffff;fill-opacity:0;stroke-width:0.99900001;stroke-miterlimit:4;stroke-dasharray:none"
         d="m 974.49114,1181.9026 20.96731,-36.3168 a 195.16908,195.16908 0 0 0 -97.4581,-26.3927 195.16908,195.16908 0 0 0 -0.0699,0 l 0,41.9592 a 153.20774,153.20774 0 0 1 0.0699,0 153.20774,153.20774 0 0 1 76.49079,20.7484 z"
         id="path4179-6-3-77-5-0-6" />
      <path
         inkscape:connector-curvature="0"
         style="fill:#ffffff;fill-opacity:0;stroke-width:0.99900001;stroke-miterlimit:4;stroke-dasharray:none"
         d="m 1017.5106,1298.5592 a 120.77294,120.77294 0 0 1 0.2379,31.4882 l 14.3669,1.8915 a 135.2657,135.2657 0 0 0 -0.2405,-35.2706 l -14.3643,1.8909 z"
         id="path6157-9-5-2" />
      <path
         inkscape:connector-curvature="0"
         style="fill:#ffffff;fill-opacity:0;stroke-width:0.99900001;stroke-miterlimit:4;stroke-dasharray:none"
         d="m 1009.3591,1360.4759 a 120.77294,120.77294 0 0 1 -15.69354,27.2837 l 11.50124,8.825 a 135.2657,135.2657 0 0 0 17.5686,-30.5676 l -13.3763,-5.5411 z"
         id="path6154-2-6-6" />
      <path
         inkscape:connector-curvature="0"
         style="fill:#ffffff;fill-opacity:0;stroke-width:0.99900001;stroke-miterlimit:4;stroke-dasharray:none"
         d="m 880.30862,1180.486 1.89064,14.3662 a 120.77294,120.77294 0 0 1 31.49565,-0.237 l 1.89144,-14.3669 a 135.2657,135.2657 0 0 0 -35.27773,0.2377 z"
         id="path5393-2-6-1" />
      <path
         inkscape:connector-curvature="0"
         style="fill:#ffffff;fill-opacity:0;stroke-width:0.99900001;stroke-miterlimit:4;stroke-dasharray:none"
         d="m 944.14649,1203.0172 a 120.77294,120.77294 0 0 1 27.26665,15.6932 l 8.82708,-11.5029 a 135.2657,135.2657 0 0 0 -30.55264,-17.5666 l -5.54109,13.3763 z"
         id="path5864-8-4-8" />
      <path
         inkscape:connector-curvature="0"
         style="fill:#ffffff;fill-opacity:0;stroke-width:0.99900001;stroke-miterlimit:4;stroke-dasharray:none"
         d="m 846.35864,1439.0989 5.54109,-13.3763 a 120.77294,120.77294 0 0 1 -27.29146,-15.6925 l -8.82472,11.4992 a 135.2657,135.2657 0 0 0 30.57509,17.5696 z"
         id="path5594-9-0-7" />
      <path
         inkscape:connector-curvature="0"
         style="fill:#ffffff;fill-opacity:0;stroke-width:0.99900001;stroke-miterlimit:4;stroke-dasharray:none"
         d="m 913.66928,1433.8928 a 120.77294,120.77294 0 0 1 -31.43297,0.209 120.77294,120.77294 0 0 1 -0.0688,-0.013 l -1.89193,14.3707 a 135.2657,135.2657 0 0 0 0.069,0.011 135.2657,135.2657 0 0 0 35.21554,-0.2136 l -1.89088,-14.3642 z"
         id="path5735-7-0-9" />
      <path
         inkscape:connector-curvature="0"
         style="fill:#ffffff;fill-opacity:0;stroke-width:0.99900001;stroke-miterlimit:4;stroke-dasharray:none"
         d="m 773.27,1262.7004 13.37817,5.5413 a 120.77294,120.77294 0 0 1 15.69615,-27.2891 l -11.50123,-8.8249 A 135.2657,135.2657 0 0 0 773.27,1262.7004 Z"
         id="path5474-3-4-2" />
      <path
         inkscape:connector-curvature="0"
         style="fill:#ffffff;fill-opacity:0;stroke-width:0.99900001;stroke-miterlimit:4;stroke-dasharray:none"
         d="m 815.86364,1207.2976 8.82168,11.4967 a 120.77294,120.77294 0 0 1 27.1711,-15.879 l -5.55605,-13.4155 a 135.2657,135.2657 0 0 0 -30.43673,17.7978 z"
         id="path5438-6-6-0" />
      <path
         inkscape:connector-curvature="0"
         style="fill:#ffffff;fill-opacity:0;stroke-width:0.99900001;stroke-miterlimit:4;stroke-dasharray:none"
         d="m 764.10492,1331.9257 14.36825,-1.8923 a 120.77294,120.77294 0 0 1 -0.21254,-31.4353 120.77294,120.77294 0 0 1 0.0142,-0.078 l -14.37065,-1.8919 a 135.2657,135.2657 0 0 0 -0.0123,0.078 135.2657,135.2657 0 0 0 0.21305,35.2193 z"
         id="path5513-1-2-2" />
      <path
         inkscape:connector-curvature="0"
         style="fill:#ffffff;fill-opacity:0;stroke-width:0.99900001;stroke-miterlimit:4;stroke-dasharray:none"
         d="m 790.9093,1396.4687 11.49876,-8.8233 a 120.77294,120.77294 0 0 1 -15.87305,-27.1874 l -13.41757,5.5577 a 135.2657,135.2657 0 0 0 17.79186,30.453 z"
         id="path5552-2-6-3" />
      <path
         inkscape:connector-curvature="0"
         style="fill:#ffffff;fill-opacity:0;stroke-width:0.99900001;stroke-miterlimit:4;stroke-dasharray:none"
         d="m 993.52763,1240.9942 a 120.77294,120.77294 0 0 1 15.88617,27.1454 l 13.4136,-5.5563 a 135.2657,135.2657 0 0 0 -17.8031,-30.4107 l -11.49667,8.8216 z"
         id="path5834-9-7-7" />
      <path
         inkscape:connector-curvature="0"
         style="fill:#ffffff;fill-opacity:0;stroke-width:0.99900001;stroke-miterlimit:4;stroke-dasharray:none"
         d="m 971.33653,1409.9138 a 120.77294,120.77294 0 0 1 -27.16012,15.8824 l 5.55793,13.4157 a 135.2657,135.2657 0 0 0 30.4255,-17.7994 l -8.82331,-11.4987 z"
         id="path5756-3-5-5" />
      <g
         transform="translate(278.00004,461.99997)"
         id="g4288-7-9">
        <path
           id="path5477-9-9-5-2"
           d="m 424.83311,852.28296 41.96294,0 a 153.20774,153.20774 0 0 1 20.74086,-76.40775 L 451.222,754.90978 a 195.16908,195.16908 0 0 0 -26.38889,97.37318 z"
           style="fill:#d90000;fill-opacity:1;stroke-width:0.99900001;stroke-miterlimit:4;stroke-dasharray:none"
           inkscape:connector-curvature="0" />
        <path
           id="path5789-4-8-8-2"
           d="m 773.20574,852.28263 a 153.20774,153.20774 0 0 1 0.002,0.0792 153.20774,153.20774 0 0 1 -5.52158,39.57579 153.20774,153.20774 0 0 1 -15.21551,36.89802 l 36.31492,20.96542 a 195.16908,195.16908 0 0 0 19.37084,-47.01841 195.16908,195.16908 0 0 0 7.01238,-50.42082 195.16908,195.16908 0 0 0 -0.004,-0.0792 l -41.95916,0 z"
           style="fill:#d90000;fill-opacity:1;stroke-width:0.99900001;stroke-miterlimit:4;stroke-dasharray:none"
           inkscape:connector-curvature="0" />
        <path
           id="path5555-7-7-7-8"
           d="m 522.56673,1021.15 20.96543,-36.31307 a 153.20774,153.20774 0 0 1 -56.08205,-56.02732 l -36.35455,20.98996 a 195.16908,195.16908 0 0 0 71.47117,71.35043 z"
           style="fill:#d90000;fill-opacity:1;stroke-width:0.99900001;stroke-miterlimit:4;stroke-dasharray:none"
           inkscape:connector-curvature="0" />
        <path
           id="path5389-8-2-04-9"
           d="m 522.51955,683.48579 20.98808,36.35265 a 153.20774,153.20774 0 0 1 76.42286,-20.68236 l 0,-41.95916 a 195.16908,195.16908 0 0 0 -97.41094,26.28887 z"
           style="fill:#d90000;fill-opacity:1;stroke-width:0.99900001;stroke-miterlimit:4;stroke-dasharray:none"
           inkscape:connector-curvature="0" />
        <path
           id="path5429-4-8-8-7"
           d="m 696.52317,984.86901 a 153.20774,153.20774 0 0 1 -76.52287,20.70119 153.20774,153.20774 0 0 1 -0.0699,0 l 0,41.9629 a 195.16908,195.16908 0 0 0 0.0699,0 195.16908,195.16908 0 0 0 97.51095,-26.3096 l -20.98808,-36.35264 z"
           style="fill:#d90000;fill-opacity:1;stroke-width:0.99900001;stroke-miterlimit:4;stroke-dasharray:none"
           inkscape:connector-curvature="0" />
        <path
           id="path5585-5-2-0-3"
           d="m 696.49109,719.90261 a 153.20774,153.20774 0 0 1 55.99147,55.89145 l 36.35077,-20.98619 a 195.16908,195.16908 0 0 0 -71.37492,-71.22206 l -20.96732,36.3168 z"
           style="fill:#d90000;fill-opacity:1;stroke-width:0.99900001;stroke-miterlimit:4;stroke-dasharray:none"
           inkscape:connector-curvature="0" />
      </g>
      <g
         transform="translate(278.00004,461.99997)"
         style="fill:#800000"
         inkscape:label="#g4274"
         id="color-centro-6">
        <path
           id="path5549-0-9-1"
           d="m 739.51054,836.55925 14.36427,-1.89089 a 135.2657,135.2657 0 0 0 -9.04743,-34.08499 l -13.41359,5.5563 a 120.77294,120.77294 0 0 1 8.09675,30.41958 z"
           style="fill:#800000;fill-opacity:1;stroke-width:0.99900001;stroke-miterlimit:4;stroke-dasharray:none"
           inkscape:connector-curvature="0" />
        <path
           id="path5510-3-9-2"
           d="m 731.35906,898.47591 13.37631,5.5411 a 135.2657,135.2657 0 0 0 9.37341,-33.99908 135.2657,135.2657 0 0 0 0.007,-0.079 l -14.36687,-1.89144 a 120.77294,120.77294 0 0 1 -0.009,0.0788 120.77294,120.77294 0 0 1 -8.38096,30.34967 z"
           style="fill:#800000;fill-opacity:1;stroke-width:0.99900001;stroke-miterlimit:4;stroke-dasharray:none"
           inkscape:connector-curvature="0" />
        <path
           id="path5738-6-6-93"
           d="m 602.30857,718.48608 a 135.2657,135.2657 0 0 0 -34.00824,9.01375 l 5.55605,13.41547 a 120.77294,120.77294 0 0 1 30.34283,-8.06309 l -1.89064,-14.36613 z"
           style="fill:#800000;fill-opacity:1;stroke-width:0.99900001;stroke-miterlimit:4;stroke-dasharray:none"
           inkscape:connector-curvature="0" />
        <path
           id="path5391-1-0-1"
           d="m 666.14645,741.01725 5.54109,-13.37631 a 135.2657,135.2657 0 0 0 -34.03153,-9.3872 135.2657,135.2657 0 0 0 -0.0698,-0.005 l -1.89144,14.36689 a 120.77294,120.77294 0 0 1 0.0696,0.007 120.77294,120.77294 0 0 1 30.3821,8.39474 z"
           style="fill:#800000;fill-opacity:1;stroke-width:0.99900001;stroke-miterlimit:4;stroke-dasharray:none"
           inkscape:connector-curvature="0" />
        <path
           id="path5873-0-2-9"
           d="m 568.3586,977.09901 a 135.2657,135.2657 0 0 0 33.91701,9.3607 l 1.89193,-14.37064 a 120.77294,120.77294 0 0 1 -30.26785,-8.36637 l -5.54109,13.37631 z"
           style="fill:#800000;fill-opacity:1;stroke-width:0.99900001;stroke-miterlimit:4;stroke-dasharray:none"
           inkscape:connector-curvature="0" />
        <path
           id="path5432-6-7-4"
           d="m 635.66924,971.89288 1.89089,14.36427 a 135.2657,135.2657 0 0 0 34.17416,-9.04521 l -5.55792,-13.41571 a 120.77294,120.77294 0 0 1 -30.50713,8.09665 z"
           style="fill:#800000;fill-opacity:1;stroke-width:0.99900001;stroke-miterlimit:4;stroke-dasharray:none"
           inkscape:connector-curvature="0" />
        <path
           id="path5798-3-6-7"
           d="m 495.26996,800.70043 a 135.2657,135.2657 0 0 0 -9.36593,33.92774 l 14.37064,1.89192 a 120.77294,120.77294 0 0 1 8.37346,-30.27832 l -13.37817,-5.54134 z"
           style="fill:#800000;fill-opacity:1;stroke-width:0.99900001;stroke-miterlimit:4;stroke-dasharray:none"
           inkscape:connector-curvature="0" />
        <path
           id="path5777-2-1-8"
           d="m 537.8636,745.29766 a 135.2657,135.2657 0 0 0 -25.02055,24.83005 l 11.50124,8.82496 a 120.77294,120.77294 0 0 1 22.34099,-22.15836 l -8.82168,-11.49665 z"
           style="fill:#800000;fill-opacity:1;stroke-width:0.99900001;stroke-miterlimit:4;stroke-dasharray:none"
           inkscape:connector-curvature="0" />
        <path
           id="path5819-0-3-4"
           d="m 486.10488,869.92578 a 135.2657,135.2657 0 0 0 9.01252,34.08992 l 13.41757,-5.55767 a 120.77294,120.77294 0 0 1 -8.06184,-30.42451 l -14.36825,1.89226 z"
           style="fill:#800000;fill-opacity:1;stroke-width:0.99900001;stroke-miterlimit:4;stroke-dasharray:none"
           inkscape:connector-curvature="0" />
        <path
           id="path5843-61-2-5"
           d="m 512.90926,934.46878 a 135.2657,135.2657 0 0 0 24.87425,25.06062 l 8.82473,-11.49935 a 120.77294,120.77294 0 0 1 -22.20022,-22.38458 l -11.49876,8.82331 z"
           style="fill:#800000;fill-opacity:1;stroke-width:0.99900001;stroke-miterlimit:4;stroke-dasharray:none"
           inkscape:connector-curvature="0" />
        <path
           id="path5588-5-1-0"
           d="m 715.52758,778.99427 11.49665,-8.82168 a 135.2657,135.2657 0 0 0 -24.78406,-24.96502 l -8.82708,11.50286 a 120.77294,120.77294 0 0 1 22.11449,22.28384 z"
           style="fill:#800000;fill-opacity:1;stroke-width:0.99900001;stroke-miterlimit:4;stroke-dasharray:none"
           inkscape:connector-curvature="0" />
        <path
           id="path5471-54-5-3"
           d="m 693.33648,947.91388 8.82332,11.49876 a 135.2657,135.2657 0 0 0 25.00695,-24.82803 l -11.50123,-8.82497 a 120.77294,120.77294 0 0 1 -22.32904,22.15424 z"
           style="fill:#800000;fill-opacity:1;stroke-width:0.99900001;stroke-miterlimit:4;stroke-dasharray:none"
           inkscape:connector-curvature="0" />
      </g>
      <path
         inkscape:connector-curvature="0"
         style="color:#000000;clip-rule:nonzero;display:inline;overflow:visible;visibility:visible;opacity:1;isolation:auto;mix-blend-mode:normal;color-interpolation:sRGB;color-interpolation-filters:linearRGB;solid-color:#000000;solid-opacity:1;fill:#ffffff;fill-opacity:0;fill-rule:nonzero;stroke:url(#linearGradient4711);stroke-width:0;stroke-linecap:butt;stroke-linejoin:miter;stroke-miterlimit:4;stroke-dasharray:none;stroke-dashoffset:0;stroke-opacity:1;color-rendering:auto;image-rendering:auto;shape-rendering:auto;text-rendering:auto;enable-background:accumulate"
         d="M 898.00063,1119.1939 A 195.16908,195.16908 0 0 0 702.83155,1314.363 195.16908,195.16908 0 0 0 898.00063,1509.5321 195.16908,195.16908 0 0 0 1093.1697,1314.363 195.16908,195.16908 0 0 0 898.00063,1119.1939 Z m -0.0283,41.846 a 153.20275,153.23093 0 0 1 15.29476,0.7661 153.20275,153.23093 0 0 1 15.14191,2.2891 153.20275,153.23093 0 0 1 14.83808,3.7892 153.20275,153.23093 0 0 1 14.38519,5.2517 153.20275,153.23093 0 0 1 13.78888,6.6633 153.20275,153.23093 0 0 1 13.05668,8.005 153.20275,153.23093 0 0 1 12.19053,9.2693 153.20275,153.23093 0 0 1 11.20544,10.4412 153.20275,153.23093 0 0 1 10.1053,11.5074 153.20275,153.23093 0 0 1 8.9089,12.4585 153.20275,153.23093 0 0 1 7.62,13.285 153.20275,153.23093 0 0 1 6.2557,13.9814 153.20275,153.23093 0 0 1 4.829,14.5342 153.20275,153.23093 0 0 1 3.3533,14.9457 153.20275,153.23093 0 0 1 1.8456,15.2061 153.20275,153.23093 0 0 1 0.3831,10.8374 153.20275,153.23093 0 0 1 -0.7643,15.2986 153.20275,153.23093 0 0 1 -2.289,15.1438 153.20275,153.23093 0 0 1 -3.7893,14.8418 153.20275,153.23093 0 0 1 -5.2517,14.3871 153.20275,153.23093 0 0 1 -6.6595,13.7927 153.20275,153.23093 0 0 1 -8.005,13.0566 153.20275,153.23093 0 0 1 -9.2674,12.1943 153.20275,153.23093 0 0 1 -10.4393,11.2073 153.20275,153.23093 0 0 1 -11.50552,10.1091 153.20275,153.23093 0 0 1 -12.4566,8.9089 153.20275,153.23093 0 0 1 -13.28314,7.6219 153.20275,153.23093 0 0 1 -13.97757,6.2557 153.20275,153.23093 0 0 1 -14.53239,4.8289 153.20275,153.23093 0 0 1 -14.94187,3.3554 153.20275,153.23093 0 0 1 -15.2023,1.8456 153.20275,153.23093 0 0 1 -10.83748,0.3849 153.20275,153.23093 0 0 1 -15.29476,-0.7662 153.20275,153.23093 0 0 1 -15.14193,-2.289 153.20275,153.23093 0 0 1 -14.83808,-3.7893 153.20275,153.23093 0 0 1 -14.38519,-5.2517 153.20275,153.23093 0 0 1 -13.78887,-6.6633 153.20275,153.23093 0 0 1 -13.0567,-8.005 153.20275,153.23093 0 0 1 -12.19051,-9.2693 153.20275,153.23093 0 0 1 -11.20546,-10.4412 153.20275,153.23093 0 0 1 -10.10719,-11.5073 153.20275,153.23093 0 0 1 -8.907,-12.4586 153.20275,153.23093 0 0 1 -7.62002,-13.2868 153.20275,153.23093 0 0 1 -6.25566,-13.9795 153.20275,153.23093 0 0 1 -4.82903,-14.5362 153.20275,153.23093 0 0 1 -3.35334,-14.9437 153.20275,153.23093 0 0 1 -1.84556,-15.2061 153.20275,153.23093 0 0 1 -0.38307,-10.8394 153.20275,153.23093 0 0 1 0.76426,-15.2966 153.20275,153.23093 0 0 1 2.28903,-15.1457 153.20275,153.23093 0 0 1 3.78925,-14.84 153.20275,153.23093 0 0 1 5.24985,-14.387 153.20275,153.23093 0 0 1 6.66138,-13.7927 153.20275,153.23093 0 0 1 8.00499,-13.0586 153.20275,153.23093 0 0 1 9.26743,-12.1924 153.20275,153.23093 0 0 1 10.43931,-11.2073 153.20275,153.23093 0 0 1 11.50362,-10.1091 153.20275,153.23093 0 0 1 12.45659,-8.9089 153.20275,153.23093 0 0 1 13.28503,-7.6219 153.20275,153.23093 0 0 1 13.97758,-6.2556 153.20275,153.23093 0 0 1 14.53238,-4.831 153.20275,153.23093 0 0 1 14.94187,-3.3533 153.20275,153.23093 0 0 1 15.20231,-1.8456 153.20275,153.23093 0 0 1 10.83749,-0.3849 z"
         id="path6327-8-9-7-9-4-6" />
      <path
         id="path8555-5-9-10"
         d="m 897.99686,1161.2059 a 153.20828,153.17717 0 0 0 -153.20803,153.1779 153.20828,153.17717 0 0 0 153.20803,153.1759 153.20828,153.17717 0 0 0 153.20804,-153.1759 153.20828,153.17717 0 0 0 -153.20804,-153.1779 z m 0.0378,17.8329 a 135.27849,135.09457 55.904373 0 1 13.4926,0.6926 135.27849,135.09457 55.904373 0 1 13.35862,2.0361 135.27849,135.09457 55.904373 0 1 13.09065,3.3609 135.27849,135.09457 55.904373 0 1 12.6906,4.6516 135.27849,135.09457 55.904373 0 1 12.1641,5.8934 135.27849,135.09457 55.904373 0 1 11.51683,7.0803 135.27849,135.09457 55.904373 0 1 10.75445,8.1937 135.27849,135.09457 55.904373 0 1 9.88451,9.2259 135.27849,135.09457 55.904373 0 1 8.91648,10.1657 135.27849,135.09457 55.904373 0 1 7.8596,11.0035 135.27849,135.09457 55.904373 0 1 6.7218,11.7339 135.27849,135.09457 55.904373 0 1 5.5178,12.3434 135.27849,135.09457 55.904373 0 1 4.2592,12.8321 135.27849,135.09457 55.904373 0 1 2.9589,13.1925 135.27849,135.09457 55.904373 0 1 1.6285,13.419 135.27849,135.09457 55.904373 0 1 0.3378,9.5656 135.27849,135.09457 55.904373 0 1 -0.6737,13.5002 135.27849,135.09457 55.904373 0 1 -2.0191,13.3624 135.27849,135.09457 55.904373 0 1 -3.342,13.0906 135.27849,135.09457 55.904373 0 1 -4.6328,12.6925 135.27849,135.09457 55.904373 0 1 -5.8764,12.1622 135.27849,135.09457 55.904373 0 1 -7.0614,11.515 135.27849,135.09457 55.904373 0 1 -8.1767,10.7488 135.27849,135.09457 55.904373 0 1 -9.20896,9.8788 135.27849,135.09457 55.904373 0 1 -10.1487,8.9069 135.27849,135.09457 55.904373 0 1 -10.98845,7.8485 135.27849,135.09457 55.904373 0 1 -11.71876,6.7104 135.27849,135.09457 55.904373 0 1 -12.33204,5.5065 135.27849,135.09457 55.904373 0 1 -12.81892,4.2459 135.27849,135.09457 55.904373 0 1 -13.18312,2.9438 135.27849,135.09457 55.904373 0 1 -13.40958,1.6116 135.27849,135.09457 55.904373 0 1 -9.56181,0.3265 135.27849,135.09457 55.904373 0 1 -13.4926,-0.6926 135.27849,135.09457 55.904373 0 1 -13.35674,-2.0361 135.27849,135.09457 55.904373 0 1 -13.09066,-3.361 135.27849,135.09457 55.904373 0 1 -12.6906,-4.6516 135.27849,135.09457 55.904373 0 1 -12.1641,-5.8933 135.27849,135.09457 55.904373 0 1 -11.51683,-7.0803 135.27849,135.09457 55.904373 0 1 -10.75445,-8.1937 135.27849,135.09457 55.904373 0 1 -9.8864,-9.2259 135.27849,135.09457 55.904373 0 1 -8.91455,-10.1657 135.27849,135.09457 55.904373 0 1 -7.85967,-11.0035 135.27849,135.09457 55.904373 0 1 -6.72177,-11.7339 135.27849,135.09457 55.904373 0 1 -5.51781,-12.3433 135.27849,135.09457 55.904373 0 1 -4.26103,-12.8322 135.27849,135.09457 55.904373 0 1 -2.95704,-13.1926 135.27849,135.09457 55.904373 0 1 -1.62855,-13.4208 135.27849,135.09457 55.904373 0 1 -0.33968,-9.5656 135.27849,135.09457 55.904373 0 1 0.67558,-13.4983 135.27849,135.09457 55.904373 0 1 2.01917,-13.3624 135.27849,135.09457 55.904373 0 1 3.34201,-13.0906 135.27849,135.09457 55.904373 0 1 4.63278,-12.6925 135.27849,135.09457 55.904373 0 1 5.87636,-12.1622 135.27849,135.09457 55.904373 0 1 7.06144,-11.515 135.27849,135.09457 55.904373 0 1 8.17481,-10.7488 135.27849,135.09457 55.904373 0 1 9.20894,-9.8788 135.27849,135.09457 55.904373 0 1 10.15059,-8.907 135.27849,135.09457 55.904373 0 1 10.98844,-7.8484 135.27849,135.09457 55.904373 0 1 11.71876,-6.7123 135.27849,135.09457 55.904373 0 1 12.33016,-5.5046 135.27849,135.09457 55.904373 0 1 12.8208,-4.2459 135.27849,135.09457 55.904373 0 1 13.18125,-2.9439 135.27849,135.09457 55.904373 0 1 13.41146,-1.6115 135.27849,135.09457 55.904373 0 1 9.55993,-0.3265 z"
         style="color:#000000;clip-rule:nonzero;display:inline;overflow:visible;visibility:visible;opacity:1;isolation:auto;mix-blend-mode:normal;color-interpolation:sRGB;color-interpolation-filters:linearRGB;solid-color:#000000;solid-opacity:1;fill:url(#linearGradient4713);fill-opacity:1;fill-rule:nonzero;stroke:none;stroke-width:0;stroke-linecap:butt;stroke-linejoin:miter;stroke-miterlimit:4;stroke-dasharray:none;stroke-dashoffset:0;stroke-opacity:0.43558284;color-rendering:auto;image-rendering:auto;shape-rendering:auto;text-rendering:auto;enable-background:accumulate"
         inkscape:connector-curvature="0" />
      <path
         id="path8578-6-1-6"
         d="m 898.10065,1193.6202 a 120.81378,120.66119 43.99951 0 0 -8.54091,0.2925 120.81378,120.66119 43.99951 0 0 -11.98105,1.438 120.81378,120.66119 43.99951 0 0 -11.77537,2.6287 120.81378,120.66119 43.99951 0 0 -11.45456,3.7911 120.81378,120.66119 43.99951 0 0 -11.01487,4.9159 120.81378,120.66119 43.99951 0 0 -10.46951,5.9914 120.81378,120.66119 43.99951 0 0 -9.81658,7.0086 120.81378,120.66119 43.99951 0 0 -9.0674,7.9522 120.81378,120.66119 43.99951 0 0 -8.22766,8.8202 120.81378,120.66119 43.99951 0 0 -7.30299,9.5977 120.81378,120.66119 43.99951 0 0 -6.3085,10.2808 120.81378,120.66119 43.99951 0 0 -5.24984,10.862 120.81378,120.66119 43.99951 0 0 -4.13837,11.33 120.81378,120.66119 43.99951 0 0 -2.98535,11.6904 120.81378,120.66119 43.99951 0 0 -1.80405,11.9301 120.81378,120.66119 43.99951 0 0 -0.60386,12.0528 120.81378,120.66119 43.99951 0 0 0.30382,8.5409 120.81378,120.66119 43.99951 0 0 1.45305,11.983 120.81378,120.66119 43.99951 0 0 2.64379,11.7791 120.81378,120.66119 43.99951 0 0 3.80624,11.4564 120.81378,120.66119 43.99951 0 0 4.92905,11.0225 120.81378,120.66119 43.99951 0 0 6.00467,10.4751 120.81378,120.66119 43.99951 0 0 7.02182,9.826 120.81378,120.66119 43.99951 0 0 7.96535,9.0768 120.81378,120.66119 43.99951 0 0 8.82963,8.2371 120.81378,120.66119 43.99951 0 0 9.609,7.3162 120.81378,120.66119 43.99951 0 0 10.28834,6.3218 120.81378,120.66119 43.99951 0 0 10.86768,5.263 120.81378,120.66119 43.99951 0 0 11.33756,4.1515 120.81378,120.66119 43.99951 0 0 11.69423,3.0005 120.81378,120.66119 43.99951 0 0 11.93199,1.8192 120.81378,120.66119 43.99951 0 0 12.05465,0.6189 120.81378,120.66119 43.99951 0 0 8.54091,-0.2925 120.81378,120.66119 43.99951 0 0 11.98105,-1.4399 120.81378,120.66119 43.99951 0 0 11.77536,-2.6267 120.81378,120.66119 43.99951 0 0 11.45456,-3.7911 120.81378,120.66119 43.99951 0 0 11.01487,-4.9159 120.81378,120.66119 43.99951 0 0 10.46951,-5.9915 120.81378,120.66119 43.99951 0 0 9.81658,-7.0085 120.81378,120.66119 43.99951 0 0 9.0674,-7.9541 120.81378,120.66119 43.99951 0 0 8.22766,-8.8183 120.81378,120.66119 43.99951 0 0 7.30298,-9.5995 120.81378,120.66119 43.99951 0 0 6.30847,-10.2809 120.81378,120.66119 43.99951 0 0 5.2499,-10.8601 120.81378,120.66119 43.99951 0 0 4.1383,-11.3319 120.81378,120.66119 43.99951 0 0 2.9854,-11.6886 120.81378,120.66119 43.99951 0 0 1.804,-11.93 120.81378,120.66119 43.99951 0 0 0.6039,-12.0528 120.81378,120.66119 43.99951 0 0 -0.3038,-8.5409 120.81378,120.66119 43.99951 0 0 -1.4531,-11.983 120.81378,120.66119 43.99951 0 0 -2.6438,-11.7791 120.81378,120.66119 43.99951 0 0 -3.8062,-11.4564 120.81378,120.66119 43.99951 0 0 -4.929,-11.0224 120.81378,120.66119 43.99951 0 0 -6.0066,-10.4771 120.81378,120.66119 43.99951 0 0 -7.01993,-9.8241 120.81378,120.66119 43.99951 0 0 -7.96535,-9.0769 120.81378,120.66119 43.99951 0 0 -8.82963,-8.2371 120.81378,120.66119 43.99951 0 0 -9.609,-7.3162 120.81378,120.66119 43.99951 0 0 -10.28835,-6.3217 120.81378,120.66119 43.99951 0 0 -10.86768,-5.263 120.81378,120.66119 43.99951 0 0 -11.33755,-4.1516 120.81378,120.66119 43.99951 0 0 -11.69423,-3.0005 120.81378,120.66119 43.99951 0 0 -11.93199,-1.8191 120.81378,120.66119 43.99951 0 0 -12.05464,-0.619 z"
         style="color:#000000;clip-rule:nonzero;display:inline;overflow:visible;visibility:visible;opacity:1;isolation:auto;mix-blend-mode:normal;color-interpolation:sRGB;color-interpolation-filters:linearRGB;solid-color:#000000;solid-opacity:1;fill:url(#radialGradient8594-6-0-5);fill-opacity:1;fill-rule:nonzero;stroke:#000000;stroke-width:0;stroke-linecap:butt;stroke-linejoin:miter;stroke-miterlimit:4;stroke-dasharray:none;stroke-dashoffset:0;stroke-opacity:1;color-rendering:auto;image-rendering:auto;shape-rendering:auto;text-rendering:auto;enable-background:accumulate"
         inkscape:connector-curvature="0" />
      <path
         inkscape:connector-curvature="0"
         id="path6327-8-93-4-29-3"
         d="M 898.00063,1119.1939 A 195.16908,195.16908 0 0 0 702.83155,1314.363 195.16908,195.16908 0 0 0 898.00063,1509.5321 195.16908,195.16908 0 0 0 1093.1697,1314.363 195.16908,195.16908 0 0 0 898.00063,1119.1939 Z m -0.0283,41.846 a 153.20275,153.23093 0 0 1 15.29476,0.7661 153.20275,153.23093 0 0 1 15.14191,2.2891 153.20275,153.23093 0 0 1 14.83808,3.7892 153.20275,153.23093 0 0 1 14.38519,5.2517 153.20275,153.23093 0 0 1 13.78888,6.6633 153.20275,153.23093 0 0 1 13.05668,8.005 153.20275,153.23093 0 0 1 12.19053,9.2693 153.20275,153.23093 0 0 1 11.20544,10.4412 153.20275,153.23093 0 0 1 10.1053,11.5074 153.20275,153.23093 0 0 1 8.9089,12.4585 153.20275,153.23093 0 0 1 7.62,13.285 153.20275,153.23093 0 0 1 6.2557,13.9814 153.20275,153.23093 0 0 1 4.829,14.5342 153.20275,153.23093 0 0 1 3.3533,14.9457 153.20275,153.23093 0 0 1 1.8456,15.2061 153.20275,153.23093 0 0 1 0.3831,10.8374 153.20275,153.23093 0 0 1 -0.7643,15.2986 153.20275,153.23093 0 0 1 -2.289,15.1438 153.20275,153.23093 0 0 1 -3.7893,14.8418 153.20275,153.23093 0 0 1 -5.2517,14.3871 153.20275,153.23093 0 0 1 -6.6595,13.7927 153.20275,153.23093 0 0 1 -8.005,13.0566 153.20275,153.23093 0 0 1 -9.2674,12.1944 153.20275,153.23093 0 0 1 -10.4393,11.2073 153.20275,153.23093 0 0 1 -11.50552,10.109 153.20275,153.23093 0 0 1 -12.4566,8.9089 153.20275,153.23093 0 0 1 -13.28314,7.622 153.20275,153.23093 0 0 1 -13.97757,6.2556 153.20275,153.23093 0 0 1 -14.53239,4.829 153.20275,153.23093 0 0 1 -14.94187,3.3553 153.20275,153.23093 0 0 1 -15.2023,1.8456 153.20275,153.23093 0 0 1 -10.83748,0.3849 153.20275,153.23093 0 0 1 -15.29476,-0.7662 153.20275,153.23093 0 0 1 -15.14193,-2.289 153.20275,153.23093 0 0 1 -14.83808,-3.7894 153.20275,153.23093 0 0 1 -14.38519,-5.2515 153.20275,153.23093 0 0 1 -13.78887,-6.6633 153.20275,153.23093 0 0 1 -13.0567,-8.0051 153.20275,153.23093 0 0 1 -12.19051,-9.2692 153.20275,153.23093 0 0 1 -11.20546,-10.4413 153.20275,153.23093 0 0 1 -10.10719,-11.5073 153.20275,153.23093 0 0 1 -8.907,-12.4585 153.20275,153.23093 0 0 1 -7.62002,-13.2869 153.20275,153.23093 0 0 1 -6.25566,-13.9794 153.20275,153.23093 0 0 1 -4.82903,-14.5363 153.20275,153.23093 0 0 1 -3.35334,-14.9437 153.20275,153.23093 0 0 1 -1.84556,-15.206 153.20275,153.23093 0 0 1 -0.38307,-10.8395 153.20275,153.23093 0 0 1 0.76426,-15.2966 153.20275,153.23093 0 0 1 2.28903,-15.1457 153.20275,153.23093 0 0 1 3.78925,-14.84 153.20275,153.23093 0 0 1 5.24985,-14.387 153.20275,153.23093 0 0 1 6.66138,-13.7927 153.20275,153.23093 0 0 1 8.00499,-13.0586 153.20275,153.23093 0 0 1 9.26743,-12.1924 153.20275,153.23093 0 0 1 10.43931,-11.2073 153.20275,153.23093 0 0 1 11.50362,-10.1091 153.20275,153.23093 0 0 1 12.45659,-8.9089 153.20275,153.23093 0 0 1 13.28503,-7.6219 153.20275,153.23093 0 0 1 13.97758,-6.2556 153.20275,153.23093 0 0 1 14.53238,-4.831 153.20275,153.23093 0 0 1 14.94187,-3.3533 153.20275,153.23093 0 0 1 15.20231,-1.8456 153.20275,153.23093 0 0 1 10.83749,-0.3849 z"
         style="color:#000000;clip-rule:nonzero;display:inline;overflow:visible;visibility:visible;opacity:1;isolation:auto;mix-blend-mode:normal;color-interpolation:sRGB;color-interpolation-filters:linearRGB;solid-color:#000000;solid-opacity:1;fill:url(#radialGradient8389-2-3-1-3);fill-opacity:1;fill-rule:nonzero;stroke:url(#linearGradient4715);stroke-width:0;stroke-linecap:butt;stroke-linejoin:miter;stroke-miterlimit:4;stroke-dasharray:none;stroke-dashoffset:0;stroke-opacity:1;color-rendering:auto;image-rendering:auto;shape-rendering:auto;text-rendering:auto;enable-background:accumulate" />
      <path
         id="path8569-7-9-2"
         d="m 898.0346,1179.0388 a 135.27849,135.09457 55.904373 0 0 -9.55993,0.3265 135.27849,135.09457 55.904373 0 0 -13.41146,1.6115 135.27849,135.09457 55.904373 0 0 -13.18125,2.9439 135.27849,135.09457 55.904373 0 0 -12.8208,4.2459 135.27849,135.09457 55.904373 0 0 -12.33016,5.5046 135.27849,135.09457 55.904373 0 0 -11.71876,6.7124 135.27849,135.09457 55.904373 0 0 -10.98844,7.8483 135.27849,135.09457 55.904373 0 0 -10.15059,8.907 135.27849,135.09457 55.904373 0 0 -9.20894,9.8789 135.27849,135.09457 55.904373 0 0 -8.17481,10.7488 135.27849,135.09457 55.904373 0 0 -7.06144,11.5149 135.27849,135.09457 55.904373 0 0 -5.87636,12.1622 135.27849,135.09457 55.904373 0 0 -4.63278,12.6925 135.27849,135.09457 55.904373 0 0 -3.34201,13.0907 135.27849,135.09457 55.904373 0 0 -2.01917,13.3623 135.27849,135.09457 55.904373 0 0 -0.67557,13.4984 135.27849,135.09457 55.904373 0 0 0.33967,9.5655 135.27849,135.09457 55.904373 0 0 1.62855,13.4209 135.27849,135.09457 55.904373 0 0 2.95704,13.1926 135.27849,135.09457 55.904373 0 0 4.26103,12.8321 135.27849,135.09457 55.904373 0 0 5.51781,12.3433 135.27849,135.09457 55.904373 0 0 6.72177,11.7339 135.27849,135.09457 55.904373 0 0 7.85967,11.0035 135.27849,135.09457 55.904373 0 0 8.91456,10.1657 135.27849,135.09457 55.904373 0 0 9.88639,9.2259 135.27849,135.09457 55.904373 0 0 10.75445,8.1937 135.27849,135.09457 55.904373 0 0 11.51684,7.0803 135.27849,135.09457 55.904373 0 0 12.16409,5.8933 135.27849,135.09457 55.904373 0 0 12.6906,4.6517 135.27849,135.09457 55.904373 0 0 13.09066,3.3609 135.27849,135.09457 55.904373 0 0 13.35674,2.0361 135.27849,135.09457 55.904373 0 0 13.4926,0.6926 135.27849,135.09457 55.904373 0 0 9.56182,-0.3265 135.27849,135.09457 55.904373 0 0 13.40957,-1.6115 135.27849,135.09457 55.904373 0 0 13.18312,-2.9439 135.27849,135.09457 55.904373 0 0 12.81892,-4.2459 135.27849,135.09457 55.904373 0 0 12.33205,-5.5065 135.27849,135.09457 55.904373 0 0 11.71875,-6.7104 135.27849,135.09457 55.904373 0 0 10.98845,-7.8484 135.27849,135.09457 55.904373 0 0 10.1487,-8.907 135.27849,135.09457 55.904373 0 0 9.20892,-9.8788 135.27849,135.09457 55.904373 0 0 8.1767,-10.7488 135.27849,135.09457 55.904373 0 0 7.0615,-11.515 135.27849,135.09457 55.904373 0 0 5.8763,-12.1622 135.27849,135.09457 55.904373 0 0 4.6328,-12.6925 135.27849,135.09457 55.904373 0 0 3.342,-13.0906 135.27849,135.09457 55.904373 0 0 2.0192,-13.3624 135.27849,135.09457 55.904373 0 0 0.6737,-13.5001 135.27849,135.09457 55.904373 0 0 -0.3378,-9.5656 135.27849,135.09457 55.904373 0 0 -1.6286,-13.419 135.27849,135.09457 55.904373 0 0 -2.9589,-13.1926 135.27849,135.09457 55.904373 0 0 -4.2591,-12.8321 135.27849,135.09457 55.904373 0 0 -5.5178,-12.3434 135.27849,135.09457 55.904373 0 0 -6.7218,-11.7338 135.27849,135.09457 55.904373 0 0 -7.8597,-11.0036 135.27849,135.09457 55.904373 0 0 -8.91644,-10.1657 135.27849,135.09457 55.904373 0 0 -9.88451,-9.2259 135.27849,135.09457 55.904373 0 0 -10.75445,-8.1937 135.27849,135.09457 55.904373 0 0 -11.51683,-7.0803 135.27849,135.09457 55.904373 0 0 -12.1641,-5.8933 135.27849,135.09457 55.904373 0 0 -12.6906,-4.6517 135.27849,135.09457 55.904373 0 0 -13.09064,-3.3609 135.27849,135.09457 55.904373 0 0 -13.35863,-2.0361 135.27849,135.09457 55.904373 0 0 -13.4926,-0.6926 z m 0.0661,14.5815 a 120.81378,120.66119 43.99951 0 1 12.05464,0.6189 120.81378,120.66119 43.99951 0 1 11.93199,1.8192 120.81378,120.66119 43.99951 0 1 11.69423,3.0004 120.81378,120.66119 43.99951 0 1 11.33755,4.1516 120.81378,120.66119 43.99951 0 1 10.86768,5.2631 120.81378,120.66119 43.99951 0 1 10.28835,6.3217 120.81378,120.66119 43.99951 0 1 9.60899,7.3162 120.81378,120.66119 43.99951 0 1 8.82964,8.2371 120.81378,120.66119 43.99951 0 1 7.96535,9.0768 120.81378,120.66119 43.99951 0 1 7.01993,9.8241 120.81378,120.66119 43.99951 0 1 6.00655,10.4771 120.81378,120.66119 43.99951 0 1 4.9291,11.0224 120.81378,120.66119 43.99951 0 1 3.8062,11.4564 120.81378,120.66119 43.99951 0 1 2.6438,11.7792 120.81378,120.66119 43.99951 0 1 1.453,11.9829 120.81378,120.66119 43.99951 0 1 0.3039,8.5409 120.81378,120.66119 43.99951 0 1 -0.6039,12.0528 120.81378,120.66119 43.99951 0 1 -1.8041,11.9301 120.81378,120.66119 43.99951 0 1 -2.9853,11.6885 120.81378,120.66119 43.99951 0 1 -4.1384,11.3319 120.81378,120.66119 43.99951 0 1 -5.2498,10.8602 120.81378,120.66119 43.99951 0 1 -6.30852,10.2808 120.81378,120.66119 43.99951 0 1 -7.30298,9.5995 120.81378,120.66119 43.99951 0 1 -8.22766,8.8183 120.81378,120.66119 43.99951 0 1 -9.06741,7.9541 120.81378,120.66119 43.99951 0 1 -9.81657,7.0085 120.81378,120.66119 43.99951 0 1 -10.46951,5.9915 120.81378,120.66119 43.99951 0 1 -11.01487,4.9159 120.81378,120.66119 43.99951 0 1 -11.45456,3.7911 120.81378,120.66119 43.99951 0 1 -11.77536,2.6268 120.81378,120.66119 43.99951 0 1 -11.98106,1.4398 120.81378,120.66119 43.99951 0 1 -8.5409,0.2925 120.81378,120.66119 43.99951 0 1 -12.05465,-0.6189 120.81378,120.66119 43.99951 0 1 -11.93199,-1.8192 120.81378,120.66119 43.99951 0 1 -11.69423,-3.0005 120.81378,120.66119 43.99951 0 1 -11.33756,-4.1514 120.81378,120.66119 43.99951 0 1 -10.86768,-5.2631 120.81378,120.66119 43.99951 0 1 -10.28835,-6.3218 120.81378,120.66119 43.99951 0 1 -9.60899,-7.3161 120.81378,120.66119 43.99951 0 1 -8.82963,-8.2371 120.81378,120.66119 43.99951 0 1 -7.96536,-9.0769 120.81378,120.66119 43.99951 0 1 -7.02181,-9.826 120.81378,120.66119 43.99951 0 1 -6.00467,-10.4751 120.81378,120.66119 43.99951 0 1 -4.92905,-11.0225 120.81378,120.66119 43.99951 0 1 -3.80624,-11.4564 120.81378,120.66119 43.99951 0 1 -2.64379,-11.7791 120.81378,120.66119 43.99951 0 1 -1.45305,-11.983 120.81378,120.66119 43.99951 0 1 -0.30382,-8.5409 120.81378,120.66119 43.99951 0 1 0.60386,-12.0527 120.81378,120.66119 43.99951 0 1 1.80405,-11.9301 120.81378,120.66119 43.99951 0 1 2.98535,-11.6905 120.81378,120.66119 43.99951 0 1 4.13837,-11.33 120.81378,120.66119 43.99951 0 1 5.24984,-10.862 120.81378,120.66119 43.99951 0 1 6.3085,-10.2808 120.81378,120.66119 43.99951 0 1 7.30299,-9.5977 120.81378,120.66119 43.99951 0 1 8.22766,-8.8202 120.81378,120.66119 43.99951 0 1 9.0674,-7.9521 120.81378,120.66119 43.99951 0 1 9.81658,-7.0086 120.81378,120.66119 43.99951 0 1 10.4695,-5.9915 120.81378,120.66119 43.99951 0 1 11.01487,-4.9158 120.81378,120.66119 43.99951 0 1 11.45456,-3.7912 120.81378,120.66119 43.99951 0 1 11.77538,-2.6287 120.81378,120.66119 43.99951 0 1 11.98105,-1.4379 120.81378,120.66119 43.99951 0 1 8.54091,-0.2925 z"
         style="color:#000000;clip-rule:nonzero;display:inline;overflow:visible;visibility:visible;opacity:1;isolation:auto;mix-blend-mode:normal;color-interpolation:sRGB;color-interpolation-filters:linearRGB;solid-color:#000000;solid-opacity:1;fill:url(#radialGradient8616-6-0-2);fill-opacity:1;fill-rule:evenodd;stroke:#000000;stroke-width:0;stroke-linecap:butt;stroke-linejoin:miter;stroke-miterlimit:4;stroke-dasharray:none;stroke-dashoffset:0;stroke-opacity:1;color-rendering:auto;image-rendering:auto;shape-rendering:auto;text-rendering:auto;enable-background:accumulate"
         inkscape:connector-curvature="0" />
      <path
         style="font-style:normal;font-weight:normal;font-size:246.12486267px;line-height:125%;font-family:sans-serif;letter-spacing:0px;word-spacing:0px;fill:#800000;fill-opacity:1;stroke:none;stroke-width:1px;stroke-linecap:butt;stroke-linejoin:miter;stroke-opacity:1"
         d="m 898.63324,1256.3424 0.0258,6.2794 -0.0258,29.5783 3.78671,0 c 4.07864,-19.8112 7.98754,-23.2654 27.0212,-23.2654 l 5.65299,0 0,77.0139 c 0,13.2751 -2.02385,14.9937 -17.29795,15.7745 l 0,2.9684 30.08356,0 1.16128,0 30.08356,0 0,-2.9684 c -15.2741,-0.7808 -17.29795,-2.4994 -17.29795,-15.7745 l 0,-77.0139 5.65298,0 c 19.03366,0 22.94257,3.4542 27.02121,23.2654 l 3.7867,0 -0.0258,-29.5783 0.0258,-6.2794 -3.7867,0 c -4.07864,4.2062 -7.98755,4.939 -27.02121,4.939 l -9.10072,0 0,0.02 -9.33787,0 -1.16128,0 -9.33788,0 0,-0.02 -9.10072,0 c -19.03366,0 -22.94256,-0.7328 -27.0212,-4.939 l -3.78671,0 z"
         id="path4341-8-6-6"
         inkscape:connector-curvature="0" />
      <text
         xml:space="preserve"
         style="font-style:normal;font-weight:normal;font-size:51.5856514px;line-height:125%;font-family:sans-serif;letter-spacing:0px;word-spacing:0px;fill:#800000;fill-opacity:1;stroke:none;stroke-width:1px;stroke-linecap:butt;stroke-linejoin:miter;stroke-opacity:1"
         x="878.16858"
         y="1332.4406"
         id="text4147-7-2-5-9-7-1"
         sodipodi:linespacing="125%"><tspan
           sodipodi:role="line"
           id="tspan4149-8-4-2-1-5-5"
           x="878.16858"
           y="1332.4406"
           style="font-style:normal;font-variant:normal;font-weight:normal;font-stretch:normal;font-size:51.5856514px;line-height:125%;font-family:'Nimbus Roman No9 L';-inkscape-font-specification:'Nimbus Roman No9 L, Normal';text-align:start;writing-mode:lr-tb;text-anchor:start;fill:#800000;fill-opacity:1">&amp;</tspan></text>
      <g
         transform="matrix(0.64661503,0,0,0.67346291,1041.0239,1011.1925)"
         style="font-style:normal;font-weight:normal;font-size:233.60519409px;line-height:125%;font-family:sans-serif;letter-spacing:0px;word-spacing:0px;fill:#800000;fill-opacity:1;stroke:none;stroke-width:1px;stroke-linecap:butt;stroke-linejoin:miter;stroke-opacity:1"
         id="text4147-7-5-9-9-3-5">
        <path
           d="m -227.03243,416.34904 0.0343,-52.79478 -6.1495,0 c -1.40163,4.90571 -5.13931,7.70897 -9.81141,7.70897 -2.10245,0 -5.60653,-0.70081 -9.11061,-2.10244 -11.44665,-3.73769 -23.12691,-5.60653 -34.10635,-5.60653 -19.15563,0 -42.62706,4.54713 -60.42736,20.09005 -16.47066,14.35943 -31.56903,36.69958 -31.35266,62.39531 0.25514,30.2991 14.94804,48.48299 26.05524,58.52342 17.16444,15.04254 38.8354,20.17881 65.02396,20.17881 26.39739,0 44.07074,-10.92957 59.85148,-27.64689 l -0.0289,-13.25288 c -17.28678,16.58597 -31.6951,28.71575 -51.62556,30.10149 -14.6787,1.02059 -30.08283,-3.86838 -39.28733,-13.5491 -10.14214,-10.75379 -17.20349,-31.82156 -17.20349,-57.75174 0,-42.28254 19.56037,-67.10397 53.43312,-67.10397 13.3155,0 24.56092,2.78507 33.90513,12.12928 7.47536,7.47536 11.88149,13.49666 16.31999,28.681 z"
           style="font-style:normal;font-variant:normal;font-weight:normal;font-stretch:normal;font-size:233.60519409px;line-height:125%;font-family:'Nimbus Roman No9 L';-inkscape-font-specification:'Nimbus Roman No9 L, Normal';text-align:start;writing-mode:lr-tb;text-anchor:start;fill:#800000;fill-opacity:1"
           id="path4460-6-5-4"
           inkscape:connector-curvature="0"
           sodipodi:nodetypes="cccscscscsccscssscc" />
      </g>
      <path
         id="path8555-5-9-1"
         d="M 896.93152,1193.6607 A 120.64622,120.62173 0 0 0 776.2855,1314.283 120.64622,120.62173 0 0 0 896.93152,1434.9037 120.64622,120.62173 0 0 0 1017.5776,1314.283 120.64622,120.62173 0 0 0 896.93152,1193.6607 Z m 0.0297,14.0427 a 106.52714,106.38231 55.904373 0 1 10.62495,0.5453 106.52714,106.38231 55.904373 0 1 10.51946,1.6034 106.52714,106.38231 55.904373 0 1 10.30843,2.6466 106.52714,106.38231 55.904373 0 1 9.99341,3.663 106.52714,106.38231 55.904373 0 1 9.57881,4.6408 106.52714,106.38231 55.904373 0 1 9.0691,5.5755 106.52714,106.38231 55.904373 0 1 8.46876,6.4522 106.52714,106.38231 55.904373 0 1 7.78372,7.2652 106.52714,106.38231 55.904373 0 1 7.02139,8.005 106.52714,106.38231 55.904373 0 1 6.18923,8.665 106.52714,106.38231 55.904373 0 1 5.29316,9.2399 106.52714,106.38231 55.904373 0 1 4.34508,9.72 106.52714,106.38231 55.904373 0 1 3.35392,10.1049 106.52714,106.38231 55.904373 0 1 2.33006,10.3887 106.52714,106.38231 55.904373 0 1 1.2824,10.5671 106.52714,106.38231 55.904373 0 1 0.266,7.5325 106.52714,106.38231 55.904373 0 1 -0.5305,10.6309 106.52714,106.38231 55.904373 0 1 -1.59,10.5225 106.52714,106.38231 55.904373 0 1 -2.63173,10.3084 106.52714,106.38231 55.904373 0 1 -3.64815,9.9949 106.52714,106.38231 55.904373 0 1 -4.62742,9.5773 106.52714,106.38231 55.904373 0 1 -5.56066,9.0677 106.52714,106.38231 55.904373 0 1 -6.43887,8.4643 106.52714,106.38231 55.904373 0 1 -7.25172,7.7792 106.52714,106.38231 55.904373 0 1 -7.99173,7.0139 106.52714,106.38231 55.904373 0 1 -8.65304,6.1803 106.52714,106.38231 55.904373 0 1 -9.22812,5.2842 106.52714,106.38231 55.904373 0 1 -9.71106,4.3363 106.52714,106.38231 55.904373 0 1 -10.09445,3.3435 106.52714,106.38231 55.904373 0 1 -10.38125,2.3181 106.52714,106.38231 55.904373 0 1 -10.55958,1.2692 106.52714,106.38231 55.904373 0 1 -7.5296,0.257 106.52714,106.38231 55.904373 0 1 -10.62495,-0.5454 106.52714,106.38231 55.904373 0 1 -10.51797,-1.6034 106.52714,106.38231 55.904373 0 1 -10.30845,-2.6467 106.52714,106.38231 55.904373 0 1 -9.99341,-3.6629 106.52714,106.38231 55.904373 0 1 -9.5788,-4.6408 106.52714,106.38231 55.904373 0 1 -9.06912,-5.5755 106.52714,106.38231 55.904373 0 1 -8.46875,-6.4522 106.52714,106.38231 55.904373 0 1 -7.7852,-7.2651 106.52714,106.38231 55.904373 0 1 -7.0199,-8.0051 106.52714,106.38231 55.904373 0 1 -6.18921,-8.6649 106.52714,106.38231 55.904373 0 1 -5.29317,-9.24 106.52714,106.38231 55.904373 0 1 -4.34508,-9.72 106.52714,106.38231 55.904373 0 1 -3.35541,-10.1048 106.52714,106.38231 55.904373 0 1 -2.32857,-10.3888 106.52714,106.38231 55.904373 0 1 -1.28243,-10.5685 106.52714,106.38231 55.904373 0 1 -0.26748,-7.5326 106.52714,106.38231 55.904373 0 1 0.532,-10.6294 106.52714,106.38231 55.904373 0 1 1.59001,-10.5224 106.52714,106.38231 55.904373 0 1 2.63173,-10.3085 106.52714,106.38231 55.904373 0 1 3.64816,-9.9949 106.52714,106.38231 55.904373 0 1 4.62742,-9.5773 106.52714,106.38231 55.904373 0 1 5.56065,-9.0676 106.52714,106.38231 55.904373 0 1 6.43737,-8.4643 106.52714,106.38231 55.904373 0 1 7.25173,-7.7792 106.52714,106.38231 55.904373 0 1 7.99322,-7.014 106.52714,106.38231 55.904373 0 1 8.65303,-6.1803 106.52714,106.38231 55.904373 0 1 9.22811,-5.2857 106.52714,106.38231 55.904373 0 1 9.70958,-4.3347 106.52714,106.38231 55.904373 0 1 10.09593,-3.3436 106.52714,106.38231 55.904373 0 1 10.37979,-2.3181 106.52714,106.38231 55.904373 0 1 10.56105,-1.2691 106.52714,106.38231 55.904373 0 1 7.52812,-0.257 z"
         style="color:#000000;clip-rule:nonzero;display:inline;overflow:visible;visibility:visible;opacity:1;isolation:auto;mix-blend-mode:normal;color-interpolation:sRGB;color-interpolation-filters:linearRGB;solid-color:#000000;solid-opacity:1;fill:url(#linearGradient5686);fill-opacity:1;fill-rule:nonzero;stroke:none;stroke-width:0;stroke-linecap:butt;stroke-linejoin:miter;stroke-miterlimit:4;stroke-dasharray:none;stroke-dashoffset:0;stroke-opacity:0.43558284;color-rendering:auto;image-rendering:auto;shape-rendering:auto;text-rendering:auto;enable-background:accumulate"
         inkscape:connector-curvature="0" />
    </g>
  </g>
</svg>
