<?xml version="1.0" encoding="UTF-8" standalone="no"?>
<!-- Created with Inkscape (http://www.inkscape.org/) -->

<svg
   xmlns:dc="http://purl.org/dc/elements/1.1/"
   xmlns:cc="http://creativecommons.org/ns#"
   xmlns:rdf="http://www.w3.org/1999/02/22-rdf-syntax-ns#"
   xmlns:svg="http://www.w3.org/2000/svg"
   xmlns="http://www.w3.org/2000/svg"
   xmlns:xlink="http://www.w3.org/1999/xlink"
   xmlns:sodipodi="http://sodipodi.sourceforge.net/DTD/sodipodi-0.dtd"
   xmlns:inkscape="http://www.inkscape.org/namespaces/inkscape"
   width="240"
   height="240"
   viewBox="0 0 240 240.00001"
   id="svg5972"
   version="1.1"
   inkscape:version="0.91 r13725"
   sodipodi:docname="joker.svg">
  <defs
     id="defs5974">
    <linearGradient
       id="linearGradient7847">
      <stop
         style="stop-color:#000050;stop-opacity:0.43577981;"
         offset="0"
         id="stop7849" />
    </linearGradient>
    <linearGradient
       inkscape:collect="always"
       xlink:href="#linearGradient7847"
       id="linearGradient5625"
       gradientUnits="userSpaceOnUse"
       gradientTransform="matrix(0.96618355,0,0,0.96618355,-153.50971,598.30117)"
       x1="163.38257"
       y1="262.95316"
       x2="568.38257"
       y2="262.95316" />
    <linearGradient
       inkscape:collect="always"
       xlink:href="#linearGradient7847"
       id="linearGradient5627"
       gradientUnits="userSpaceOnUse"
       gradientTransform="matrix(0.96618355,0,0,0.96618355,-153.50971,598.30121)"
       x1="163.38257"
       y1="262.95316"
       x2="568.38257"
       y2="262.95316" />
    <linearGradient
       inkscape:collect="always"
       xlink:href="#linearGradient7847"
       id="linearGradient5631"
       gradientUnits="userSpaceOnUse"
       gradientTransform="matrix(0.96618355,0,0,0.96618355,-153.50971,598.30121)"
       x1="163.38257"
       y1="262.95316"
       x2="568.38257"
       y2="262.95316" />
    <linearGradient
       inkscape:collect="always"
       xlink:href="#linearGradient7847"
       id="linearGradient6167"
       gradientUnits="userSpaceOnUse"
       gradientTransform="matrix(0.96618355,0,0,0.96618355,-152.536,597.33605)"
       x1="163.38257"
       y1="262.95316"
       x2="568.38257"
       y2="262.95316" />
    <linearGradient
       inkscape:collect="always"
       xlink:href="#linearGradient7847"
       id="linearGradient6169"
       gradientUnits="userSpaceOnUse"
       gradientTransform="matrix(0.96618355,0,0,0.96618355,-152.53659,597.33529)"
       x1="163.38257"
       y1="262.95316"
       x2="568.38257"
       y2="262.95316" />
    <linearGradient
       inkscape:collect="always"
       xlink:href="#linearGradient7847"
       id="linearGradient6172"
       gradientUnits="userSpaceOnUse"
       gradientTransform="matrix(0.96618355,0,0,0.96618355,-152.53659,597.33528)"
       x1="163.38257"
       y1="262.95316"
       x2="568.38257"
       y2="262.95316" />
  </defs>
  <sodipodi:namedview
     id="base"
     pagecolor="#ffffff"
     bordercolor="#666666"
     borderopacity="1.0"
     inkscape:pageopacity="0.0"
     inkscape:pageshadow="2"
     inkscape:zoom="0.5"
     inkscape:cx="-119.08318"
     inkscape:cy="220.14427"
     inkscape:document-units="px"
     inkscape:current-layer="layer1"
     showgrid="false"
     units="px"
     inkscape:window-width="1855"
     inkscape:window-height="1056"
     inkscape:window-x="65"
     inkscape:window-y="24"
     inkscape:window-maximized="1" />
  <metadata
     id="metadata5977">
    <rdf:RDF>
      <cc:Work
         rdf:about="">
        <dc:format>image/svg+xml</dc:format>
        <dc:type
           rdf:resource="http://purl.org/dc/dcmitype/StillImage" />
        <dc:title></dc:title>
      </cc:Work>
    </rdf:RDF>
  </metadata>
  <g
     inkscape:label="Capa 1"
     inkscape:groupmode="layer"
     id="layer1"
     transform="translate(0,-812.36216)">
    <g
       id="g4197"
       transform="translate(626,202.00001)">
      <path
         sodipodi:nodetypes="cccccccccccccccccccccccccccccccccccccccccccc"
         inkscape:connector-curvature="0"
         id="path3488-6"
         d="m -522.7828,630.21888 c -1.89363,-0.002 -3.72874,0.14115 -5.43168,0.45274 -3.55214,0.44904 -8.60899,4.39758 -14.1265,7.33114 8.59009,-1.63863 16.07529,-1.7157 17.84345,2.06642 6.2805,8.17201 4.12028,18.4947 4.27554,28.57274 -1.7711,14.67905 -9.19978,28.91755 -16.86391,39.62344 l 5.34134,-15.56361 c -6.00973,-3.40714 -12.764,-5.41434 -18.77373,-5.82752 -12.67481,-0.23654 -23.07141,2.11789 -31.78308,6.39034 -20.05822,9.02633 -23.18835,19.33292 -24.72086,26.88014 11.03818,-11.657 17.65781,-15.51809 24.34917,-16.91769 13.9798,-3.16668 23.41683,-0.31389 28.99433,6.01652 3.76375,3.79862 5.15928,8.10856 6.77882,13.55533 0.52603,4.13537 1.55336,7.87274 1.58537,12.00811 7.83388,-7.88135 15.92278,-9.58748 24.72077,-12.59365 10.62565,-3.16599 21.82026,-1.72991 31.97007,-0.56493 8.94402,2.51371 16.7971,5.87898 23.79153,11.84307 5.43434,-10.83968 10.50633,-22.99481 19.70096,-33.83448 8.48509,-10.98037 16.53029,-19.51614 23.0472,-19.549 5.12509,-2.32152 9.65458,-0.43125 14.31132,0.56281 4.19572,0.7904 7.43687,4.20586 8.17937,14.47536 2.17477,-3.27532 4.5037,-6.05487 4.27552,-17.10668 -2.97388,-9.15928 -5.94887,-11.78994 -8.92275,-13.53456 -8.85791,-2.95212 -18.65187,-2.11253 -28.99434,0.94079 -15.94989,2.63983 -41.23377,22.47852 -59.90258,34.28397 l 15.96032,-16.48572 c -4.08583,-12.97084 -8.4632,-23.67401 -16.4655,-35.65466 -3.57002,-6.4621 -7.89842,-10.62398 -12.45284,-14.09945 -4.79283,-1.9601 -11.0064,-3.26577 -16.68731,-3.27097 z m -26.24871,3.64687 c -3.28517,3.5e-4 -5.94792,2.69417 -5.94713,6.01652 3.4e-4,3.32153 2.66277,6.01409 5.94713,6.01444 3.28437,-3.5e-4 5.94679,-2.69291 5.94714,-6.01444 7.9e-4,-3.32235 -2.66196,-6.01617 -5.94714,-6.01652 z m 148.42167,64.81929 c -3.84926,1.3e-4 -6.96969,3.15586 -6.96982,7.04869 1.3e-4,3.89283 3.12055,7.04856 6.96982,7.04869 3.84927,-1.3e-4 6.96969,-3.15586 6.96982,-7.04869 -1.3e-4,-3.89283 -3.12056,-7.04856 -6.96982,-7.04869 z m -210.31622,24.65588 c -4.10546,4.5e-4 -7.43348,3.36613 -7.43392,7.51805 -6.9e-4,4.15273 3.32765,7.51968 7.43392,7.52013 4.10706,7e-4 7.43666,-3.36659 7.43597,-7.52013 -4.4e-4,-4.15274 -3.32971,-7.51875 -7.43597,-7.51805 z"
         style="fill:#a80000;fill-opacity:1;fill-rule:evenodd;stroke:none;stroke-width:1px;stroke-linecap:butt;stroke-linejoin:miter;stroke-opacity:1" />
      <path
         sodipodi:nodetypes="ccccccccccccccccccccc"
         inkscape:connector-curvature="0"
         id="path4328-3-4"
         d="m -501.95517,729.63028 c -17.13297,0.0906 -17.73567,0.49012 -22.71251,1.85354 -6.32388,1.49522 -12.32967,4.76543 -19.34253,9.74455 l 1.70857,15.55114 c 6.44686,2.64923 13.09512,4.38189 20.23997,3.85456 7.25155,-0.23415 12.14605,-1.89856 15.90284,-4.2533 2.19822,-0.81316 3.74656,-0.31187 5.25713,0.26583 1.972,1.90705 4.74559,4.06921 15.37713,4.91788 6.12084,0.37993 12.37118,1.4147 17.47997,-3.32289 l 1.82131,-16.8575 c -15.58971,-13.82442 -28.79,-10.43129 -35.73188,-11.75381 z m 14.85345,15.0537 c 4.27403,0.39452 7.98735,1.69634 10.51428,4.91788 -3.08614,2.00846 -6.28997,3.30285 -9.72571,3.18998 -4.82661,0.24907 -8.83378,-0.88307 -12.61712,-2.39249 2.68084,-4.24499 7.06511,-5.33169 11.82855,-5.71537 z m -32.81932,0.0477 c 0.19476,0.29544 8.88841,0.025 11.31951,5.50248 -1.7745,1.48284 -4.36942,3.3031 -12.01442,2.69056 -6.1692,-0.59152 -10.63844,-1.98535 -11.5657,-5.0508 2.22791,-3.17306 8.3751,-3.61378 12.26061,-3.14224 z"
         style="fill:#530000;fill-opacity:1;fill-rule:evenodd;stroke:none;stroke-width:1px;stroke-linecap:butt;stroke-linejoin:miter;stroke-opacity:1" />
      <path
         sodipodi:nodetypes="ccccccccccc"
         inkscape:connector-curvature="0"
         id="path4350-6-6"
         d="m -533.23509,785.33014 c -14.8856,11.26669 -40.0981,15.70991 -63.8957,12.95664 12.55634,7.85415 40.40524,14.83255 62.26572,12.78203 -4.63212,8.5803 -24.27943,16.18212 -24.27943,16.18212 0,0 37.76585,0.45447 52.34548,-14.30237 11.67815,13.72679 51.28309,17.5569 51.28309,17.5569 0,0 -17.61493,-8.90951 -20.61491,-20.18853 19.14838,8.72714 43.93742,-3.95813 67.28415,-13.15803 -27.40787,3.53482 -51.5525,-2.39173 -67.58664,-12.85986 -16.14734,6.19707 -12.01235,20.93753 -29.99396,19.62687 -19.37395,-1.5196 -10.19531,-10.40579 -26.8078,-18.59577 z"
         style="fill:#a80000;fill-opacity:1;fill-rule:evenodd;stroke:none;stroke-width:1px;stroke-linecap:butt;stroke-linejoin:miter;stroke-opacity:1" />
    </g>
  </g>
</svg>
